
<?xml version="1.0" encoding="utf-8"?>
<!-- Generator: Adobe Illustrator 22.0.1, SVG Export Plug-In . SVG Version: 6.00 Build 0)  -->
<svg version="1.1" id="Capa_1" xmlns="http://www.w3.org/2000/svg" xmlns:xlink="http://www.w3.org/1999/xlink" x="0px" y="0px"
	 viewBox="0 0 385 818" style="enable-background:new 0 0 385 818;" xml:space="preserve">
<style type="text/css">
	.st0{fill:#B4EFF2;}
	.st1{fill:#FF6688;}
	.st2{opacity:0.8;fill:#D84A66;}
	.st3{fill:#ACC7BF;}
	.st4{fill:#51515C;}
	.st5{fill:#BCCBC7;}
	.st6{opacity:0.8;fill:#718492;}
	.st7{fill:url(#SVGID_1_);}
	.st8{fill:#99B8AF;}
	.st9{fill:#516272;}
	.st10{fill:url(#SVGID_2_);}
	.st11{fill:url(#SVGID_3_);}
	.st12{fill:none;stroke:#CE00F9;stroke-width:0.1528;stroke-miterlimit:10;}
	.st13{opacity:0.2;}
	.st14{fill:#FCFCFC;}
	.st15{fill:#A7A7A7;}
	.st16{fill:#F5F3F3;stroke:#A7A7A7;stroke-miterlimit:10;}
	.st17{fill:#CDCBCD;}
	.st18{opacity:0.8;fill:#7F7E80;}
	
		.st19{opacity:0.8;fill:none;stroke:url(#SVGID_4_);stroke-width:0.5;stroke-linecap:round;stroke-linejoin:round;stroke-miterlimit:10;}
	.st20{opacity:0.8;fill:#719087;}
	.st21{fill:#C43966;}
</style>
<g>
	<g>
		<polygon class="st0" points="287.7,544.7 281.6,817 344,817 328.5,544.7 		"/>
		<polygon class="st0" points="219.6,817 205.9,540.5 177.2,540.4 168,817 		"/>
		<path class="st0" d="M103.3,818c0,0-8.4-267.1-8.3-272l-38.5,0l-9.8,272H103.3z"/>
		<path class="st0" d="M249.6,705h3.5C251.9,704.9,250.7,704.9,249.6,705z"/>
	</g>
	<g>
		<path class="st1" d="M258.3,471.3h-132c0,0-2.7-116,0-118.7c0.9-0.9,0.6-3.8,0.7-4.9c0.2-3.6,0.4-7.3,0.5-10.9
			c0.2-8.5,0.2-17,0.1-25.5c-0.1-4.6-0.1-9.2-0.1-13.8c-0.1-26.7-0.5-53.4-0.7-80.1c-0.1-13.9-0.2-27.9-0.3-41.8
			c0-6.4,0-12.9-0.1-19.3c-0.1-8.7,1.8-16.9,3.5-25.4c1.6-7.7,3.4-15.4,5.5-23c1.4-5.1,3-10.3,4.7-15.4c3.8-11.2,8.4-22.2,14.5-32.3
			c1.7-2.9,3.6-5.8,5.6-8.5c5.8-8,13.2-15.7,22.4-19.7c1.7-0.7,3.4-1.3,5.1-1.7c1.5-0.3,3-0.5,4.6-0.6c1.2-0.1,2.4,0.1,3.5,0.3
			c0.3,0.1,0.7,0.1,1,0.2c6.5,1.5,12.3,5.4,17.2,9.8c6,5.4,11,11.9,15.2,18.8c3.8,6.2,6.9,12.7,9.7,19.3c2,4.7,3.8,9.5,5.5,14.3
			c2.4,6.9,4.5,14,6.3,21.1c4.1,15.7,7.5,31.3,7.5,47.6c0.1,27.9-0.4,55.9-0.6,83.9c-0.3,24.7-0.6,49.4-0.5,74.1
			c0,7.9,0,15.8,0.3,23.7c0.1,1.9-0.6,8.1,0.9,9.6C261,355.3,258.3,471.3,258.3,471.3z"/>
		<path class="st2" d="M257.4,343c-0.2-7.9-0.3-15.8-0.3-23.7c-0.1-24.7,0.2-49.4,0.5-74.1c0.3-27.9,0.7-55.9,0.6-83.9
			c0-16.3-3.5-31.9-7.5-47.6c-1.8-7.1-3.9-14.1-6.3-21.1c-1.7-4.9-3.5-9.6-5.5-14.3c-2.8-6.5-5.9-13.1-9.7-19.3
			c-4.2-7-9.2-13.4-15.2-18.8c-4.9-4.4-10.7-8.3-17.2-9.8c-0.3-0.1-0.7-0.2-1-0.2c-1.1-0.2-2.3-0.4-3.5-0.3v441.3h65.9
			c0,0,2.7-116,0-118.7C256.8,351,257.5,344.9,257.4,343z"/>
		<path class="st1" d="M196.9,30.5c-0.3-0.1-0.7-0.2-1-0.2c-1.1-0.2-2.4-0.4-3.5-0.3c-1.6,0.1-3.1,0.3-4.6,0.6L191.2,1
			c0.2-1.3,2-1.3,2.2,0L196.9,30.5z"/>
		<path class="st3" d="M74.3,93.5l-2.8,23.9c-0.1,0.5,0.3,1,0.8,1h5.6c0.5,0,0.9-0.4,0.8-1L76,93.5C75.9,92.5,74.4,92.5,74.3,93.5z"
			/>
		<path class="st4" d="M195,123.7c-0.2,0-0.4-0.1-0.6-0.1c-0.7-0.1-1.4-0.2-2.1-0.2c-0.9,0.1-1.8,0.2-2.7,0.4l2-17.2
			c0.1-0.8,1.2-0.8,1.3,0L195,123.7z"/>
		<path class="st3" d="M110.7,335.1c0,16.1,0,32.2-0.1,47.9c-0.1,53.2-0.1,100.9-0.2,120.9c0,5.5-4.5,10-10.1,10H49.8
			c-5.5,0-10-4.5-10.1-10c0-13.7-0.1-40.2-0.1-72.7c0-9.9,0-20.5,0-31.3c-0.1-41.2-0.1-87.5-0.1-127.7c0-22.9,0-43.8,0-60.7
			c0-11.3,0.1-20.7,0.1-27.9c0-2.7,0.1-5,0.1-7c0.1-4.3,0.1-6.8,0.1-7.3c0.7-6.7,5.3-17.3,14.7-37.3c2.5-5.4,5.9-10.9,11-14.3
			c3.9-2.6,9-3.3,13.6-2.5c8.2,1.5,13.5,9.8,16.8,16.7c9.3,20,14,30.7,14.7,37.3c0.1,0.5,0.1,3.1,0.1,7.3c0,2,0.1,4.3,0.1,7
			C110.8,210.8,110.8,272.4,110.7,335.1z"/>
		<path class="st5" d="M75.4,114.9c-3.5,0-7.1,0.8-10,2.8c-5,3.4-8.4,8.9-11,14.3c-9.3,20-14,30.7-14.7,37.3
			c-0.1,0.5-0.1,3.1-0.1,7.3c0,2,0,4.3-0.1,7c0,7.1-0.1,16.6-0.1,27.9c0,16.9-0.1,37.8,0,60.7c0,40.2,0.1,86.5,0.1,127.7
			c0,10.9,0,21.4,0,31.3c0.1,32.5,0.1,59,0.1,72.7c0,5.5,4.5,10,10.1,10h25.6V114.9z"/>
		<path class="st6" d="M110.6,183.6h-71c0-2.7,0.1-5,0.1-7h70.9C110.6,178.6,110.6,180.9,110.6,183.6z"/>
		<path class="st6" d="M63.9,224.1v35.3c0,7-5.7,12.7-12.7,12.7H39.5v-37.3c0-8.4,0-16.3,0-23.4h11.7c2.3,0,4.4,0.6,6.3,1.7
			C61.3,215.3,63.9,219.4,63.9,224.1z"/>
		<rect x="39.5" y="308.3" class="st6" width="71.3" height="15"/>
		<line class="st6" x1="39.5" y1="294.1" x2="110.8" y2="294.1"/>
		<linearGradient id="SVGID_1_" gradientUnits="userSpaceOnUse" x1="50.0221" y1="519.3724" x2="100.2443" y2="519.3724">
			<stop  offset="0" style="stop-color:#E9E9E9"/>
			<stop  offset="0.9568" style="stop-color:#A1B6E6"/>
		</linearGradient>
		<rect x="50" y="513.9" class="st7" width="50.2" height="10.9"/>
		<rect x="50" y="513.9" class="st8" width="50.2" height="10.9"/>
		<path class="st9" d="M107.5,547.9h-63c-1.8,0-3.2-1.5-3.2-3.2v-16.6c0-1.8,1.5-3.2,3.2-3.2h63c1.8,0,3.2,1.5,3.2,3.2v16.6
			C110.8,546.5,109.3,547.9,107.5,547.9z"/>
		<path class="st3" d="M310.4,93.5l2.8,23.9c0.1,0.5-0.3,1-0.8,1h-5.6c-0.5,0-0.9-0.4-0.8-1l2.8-23.9
			C308.8,92.5,310.3,92.5,310.4,93.5z"/>
		<path class="st5" d="M284.3,513.9h50.6c5.5,0,10-4.5,10.1-10c0.1-33.8,0.3-146.4,0.3-231.8c0-22.9,0-43.8,0-60.7
			c0-11.3-0.1-20.7-0.1-27.9c0-2.7-0.1-5-0.1-7c-0.1-4.3-0.1-6.8-0.1-7.3c-0.7-6.7-5.3-17.3-14.7-37.3c-2.5-5.4-5.9-10.9-11-14.3
			c-3.9-2.6-9-3.3-13.6-2.5c-8.2,1.5-13.5,9.8-16.8,16.7c-9.3,20-14,30.7-14.7,37.3c-0.1,0.5-0.1,3.1-0.1,7.3c0,2-0.1,4.3-0.1,7
			c-0.3,57.8,0,271.4,0.1,320.3C274.2,509.4,278.7,513.9,284.3,513.9z"/>
		<path class="st3" d="M345.1,183.6c0-2.7-0.1-5-0.1-7c-0.1-4.3-0.1-6.8-0.1-7.3c-0.7-6.7-5.3-17.3-14.7-37.3
			c-2.5-5.4-5.9-10.9-11-14.3c-2.9-1.9-6.4-2.8-9.9-2.8v399h25.5c5.5,0,10-4.5,10.1-10c0.1-33.8,0.3-146.4,0.3-231.8
			c0-22.9,0-43.8,0-60.7C345.1,200.2,345.1,190.7,345.1,183.6z"/>
		<path class="st6" d="M274.1,183.6h71c0-2.7-0.1-5-0.1-7h-70.9C274.1,178.6,274.1,180.9,274.1,183.6z"/>
		<path class="st6" d="M320.8,224.1v35.3c0,7,5.7,12.7,12.7,12.7h11.7v-19.7c0-9,0-17.5,0-25.5c0-5.4,0-10.6,0-15.4h-11.7
			c-1.1,0-2.3,0.2-3.3,0.5C324.8,213.4,320.8,218.3,320.8,224.1z"/>
		
			<rect x="273.9" y="308.3" transform="matrix(-1 -1.224647e-16 1.224647e-16 -1 619.123 631.5227)" class="st6" width="71.3" height="15"/>
		<line class="st6" x1="345.2" y1="294.1" x2="273.9" y2="294.1"/>
		
			<linearGradient id="SVGID_2_" gradientUnits="userSpaceOnUse" x1="160.2442" y1="519.3724" x2="210.4664" y2="519.3724" gradientTransform="matrix(-1 0 0 1 494.9168 0)">
			<stop  offset="0" style="stop-color:#E9E9E9"/>
			<stop  offset="0.9568" style="stop-color:#A1B6E6"/>
		</linearGradient>
		<polygon class="st10" points="284.5,524.8 334.7,524.8 334.7,513.9 284.5,513.9 		"/>
		
			<rect x="284.5" y="513.9" transform="matrix(-1 -1.224647e-16 1.224647e-16 -1 619.123 1038.7449)" class="st8" width="50.2" height="10.9"/>
		<path class="st9" d="M277.2,547.9h63c1.8,0,3.2-1.5,3.2-3.2v-16.6c0-1.8-1.5-3.2-3.2-3.2h-63c-1.8,0-3.2,1.5-3.2,3.2v16.6
			C273.9,546.5,275.4,547.9,277.2,547.9z"/>
		<rect x="168.2" y="509" class="st8" width="49.1" height="11.9"/>
		<linearGradient id="SVGID_3_" gradientUnits="userSpaceOnUse" x1="154.1294" y1="530.928" x2="231.391" y2="530.928">
			<stop  offset="0" style="stop-color:#E9E9E9"/>
			<stop  offset="0.9568" style="stop-color:#A1B6E6"/>
		</linearGradient>
		<path class="st11" d="M221.4,540.9h-57.3c-5.5,0-10-4.5-10-10l0,0c0-5.5,4.5-10,10-10h57.3c5.5,0,10,4.5,10,10l0,0
			C231.4,536.5,226.9,540.9,221.4,540.9z"/>
		<path class="st9" d="M221.4,540.9h-57.3c-5.5,0-10-4.5-10-10l0,0c0-5.5,4.5-10,10-10h57.3c5.5,0,10,4.5,10,10l0,0
			C231.4,536.5,226.9,540.9,221.4,540.9z"/>
		<line class="st12" x1="213.5" y1="509.3" x2="171.2" y2="509.3"/>
		<path class="st13" d="M230.4,61c-41.7-25.7-76.9,1.2-76.9,1.2c0.4-0.7,0.9-1.4,1.4-2.1c0,0,0,0,0.1-0.1c3.8-2.9,35.1-25,74.1-1.1
			C229.6,59.7,230,60.4,230.4,61z"/>
		<path class="st4" d="M226.8,451.3c-0.1-62.7-0.9-154.6-0.9-158.2c0-14.5,0.2-29.1,0.3-43.6c0.2-15,0.4-30,0.4-45
			c0-9.5-1.2-18.9-3.4-28.1c-1-4.3-2.2-8.6-3.5-12.9c-1.3-4.2-2.8-8.3-4.5-12.3c-3.5-8.2-8-16.4-14.6-22.4c-3-2.7-6.7-5.1-10.7-5.9
			c-0.9-0.2-2.4-0.2-3.3-0.1c-1.5,0.2-3,0.6-4.5,1.2c-5.4,2.4-9.8,6.9-13.2,11.6c-6.1,8.3-10.1,18-13,27.8c0,0,0,0,0,0
			c-0.7,2.1-1.3,4.3-1.9,6.4c-1.2,4.3-2.2,8.7-3.1,13.1c-1,4.7-2,9.3-1.9,14.2c0.1,3.8,0,7.6,0.1,11.4c0,8.2,0.1,16.4,0.2,24.6
			c0.1,13.7,0.3,27.5,0.4,41.2c-3.7,7.6-10.2,19.6-21.9,37c0.1,8.5,0.2,17-0.1,25.5c11.3-11,17.8-16.3,21.9-19.4
			c-0.2,36.4-0.6,92.1-0.6,133.9c-0.1,17.3-0.1,32.1,0,42.3c0,1.1,0.1,2.1,0.3,3.1c0.6,3.5,2.3,6.7,4.7,9.1c2.5,2.6,5.8,4.5,9.6,5.1
			c0.5,0.1,1.1,0.2,1.6,0.2c0.5,0.1,1.1,0.1,1.6,0.1h42.3c9.8,0,17.8-7.9,17.8-17.7C226.8,483.3,226.8,468.4,226.8,451.3z"/>
		<path class="st4" d="M226.3,306.6c4.4,10.6,3.5,3.6,31,30.3c-0.2-8.5-0.2-17-0.1-25.5c-22.2-33-26.6-47-26.6-47
			S221.9,295.9,226.3,306.6z"/>
		<path class="st4" d="M110.7,335.1c0,16.1,0,32.2-0.1,47.9c-2.2,6-4.9,6.6-16.1,20.5c-15.1,18.7-37.3,24.5-42.9,28.5
			c-2.6,1.9-8.2,2.8-12.1-0.7c0-9.9,0-20.5,0-31.3C75.8,378.9,109.4,336.7,110.7,335.1z"/>
		<path class="st4" d="M273.9,335.1c0,16.1,0,32.2,0.1,47.9c2.2,6,4.9,6.6,16.1,20.5c15.1,18.7,37.3,24.5,42.9,28.5
			c2.6,1.9,8.2,2.8,12.1-0.7c0-9.9,0-20.5,0-31.3C308.9,378.9,275.2,336.7,273.9,335.1z"/>
		<path class="st14" d="M154.1,284.6l-0.8,203.3H17.5c-1.9,0-3.7-0.3-5.4-0.9c-6.9-2.2-11.8-8.7-11.8-16.3v-28.1
			c0-6.5,3.7-12.4,9.5-15.3c0.8-0.4,1.5-0.8,2.3-1.2C108.1,377,154.1,284.6,154.1,284.6z"/>
		<path class="st4" d="M12.1,426.2V487c-6.9-2.2-11.8-8.7-11.8-16.3v-28.1c0-6.5,3.7-12.4,9.5-15.3C10.6,427,11.4,426.6,12.1,426.2z
			"/>
		<path class="st15" d="M230.5,284.6c0,0,47.1,93.9,144.7,142.8c5.8,2.9,9.5,8.8,9.5,15.3v28.1c0,9.5-7.7,17.1-17.1,17.1h-137V284.6
			z"/>
		<path class="st4" d="M372.9,426.2v60.9c6.9-2.2,11.8-8.7,11.8-16.3v-28.1c0-6.5-3.7-12.4-9.5-15.3
			C374.4,427,373.6,426.7,372.9,426.2z"/>
		<g>
			<path class="st16" d="M231.3,491.6c-0.1,9.8-8,17.7-17.8,17.7h-42.3c-0.6,0-1.1,0-1.6-0.1c-0.5-0.1-1.1-0.1-1.6-0.2
				c-3.7-0.7-7.1-2.5-9.6-5.1c-2.4-2.5-4.1-5.6-4.7-9.1c-0.2-1-0.3-2-0.3-3.1c-0.1-10.2-0.1-25,0-42.3c0.1-64.9,0.9-163.2,0.8-171
				c-0.1-8.1-0.1-16.1-0.2-24.2c0-2.3-0.1-4.7-0.1-7c0-5.3-0.1-10.6-0.1-15.9c-0.1-8.2-0.2-16.4-0.2-24.6c0-3.8,0-7.6-0.1-11.4
				c-0.1-4.9,0.9-9.5,1.9-14.2c0.9-4.4,1.9-8.7,3.1-13.1c0.6-2.1,1.2-4.3,1.9-6.4c0,0,0,0,0,0c3-9.8,7-19.6,13-27.8
				c3.4-4.7,7.8-9.2,13.2-11.6c1.5-0.6,2.9-1,4.5-1.2c0.9-0.1,2.4-0.1,3.3,0.1c4,0.7,7.7,3.2,10.7,5.9c6.7,6,11.2,14.2,14.6,22.4
				c1.7,4,3.2,8.1,4.5,12.3c1.3,4.2,2.5,8.5,3.5,12.9c2.2,9.2,3.4,18.7,3.4,28.1c0,14.9-0.2,29.8-0.4,44.6v0.4
				c0,2.2-0.1,4.4-0.1,6.6c-0.1,12.3-0.2,24.6-0.2,37c0,3.7,0.7,95.5,0.9,158.2C231.4,466.3,231.4,481.2,231.3,491.6z"/>
			<path class="st17" d="M230.5,291c0-12.3,0.1-24.6,0.2-37c0-2.2,0.1-4.4,0.1-6.6v-0.4c0.2-14.9,0.4-29.8,0.4-44.6
				c0-9.5-1.2-18.9-3.4-28.1c-1-4.3-2.2-8.6-3.5-12.9c-1.3-4.2-2.8-8.3-4.5-12.3c-3.5-8.2-8-16.4-14.6-22.4c-3-2.7-6.7-5.1-10.7-5.9
				c-0.7-0.1-1.7-0.2-2.6-0.1v388.5h21.6c9.8,0,17.8-7.9,17.8-17.7c0.1-10.3,0.1-25.3,0-42.3C231.2,386.6,230.5,294.7,230.5,291z"/>
			<path class="st18" d="M230.9,249.1h-76.9c0-0.7-0.1-1.3-0.1-2h77C230.8,247.6,230.9,248.3,230.9,249.1z"/>
			<path class="st18" d="M230.9,295h-76.9c0-0.7-0.1-1.3-0.1-2h77C230.8,293.5,230.9,294.2,230.9,295z"/>
			<path class="st18" d="M230.9,340.8h-76.9c0-0.7-0.1-1.3-0.1-2h77C230.8,339.4,230.9,340.1,230.9,340.8z"/>
			<path class="st18" d="M230.9,386.7h-76.9c0-0.7-0.1-1.3-0.1-2h77C230.8,385.3,230.9,386,230.9,386.7z"/>
			<path class="st4" d="M224.3,161.5L224.3,161.5c-33.3-19.6-62.6-0.8-63.9,0c3-9.8,7-19.6,13-27.8c3.4-4.7,7.8-9.2,13.2-11.6
				c1.5-0.6,2.9-1,4.5-1.2c0.9-0.1,2.4-0.1,3.3,0.1c4,0.7,7.7,3.2,10.7,5.9c6.7,6,11.2,14.2,14.6,22.4
				C221.5,153.2,223,157.3,224.3,161.5z"/>
			<g>
				<linearGradient id="SVGID_4_" gradientUnits="userSpaceOnUse" x1="169.1026" y1="203.4347" x2="215.5759" y2="203.4347">
					<stop  offset="0" style="stop-color:#14095E"/>
					<stop  offset="9.948994e-02" style="stop-color:#23085B"/>
					<stop  offset="0.2564" style="stop-color:#350658"/>
					<stop  offset="0.3703" style="stop-color:#3B0657"/>
					<stop  offset="1" style="stop-color:#14095E"/>
				</linearGradient>
				<path class="st19" d="M215.3,204.8v10.5c-0.7-0.5-1.5-0.9-2.3-1.4c-1.5-0.9-3.1-1.6-4.7-2.3c-1.7-0.7-3.4-1.3-5.2-1.7
					c-1.3-0.3-2.7-0.7-4-0.8c-2-0.3-4.1-0.3-6.1-0.3h-1.3c-2.5,0-5,0.1-7.5,0.5c-0.8,0.1-1.5,0.3-2.3,0.5c-2.9,0.7-5.6,1.8-8.3,3.1
					c-0.4,0.2-0.8,0.4-1.2,0.6c-0.7,0.3-1.4,0.7-2,1.1c-0.1,0.1-1.1,0.6-1.1,0.7v-10.7c0-1,0.6-1.9,1.5-2.4l11.4-5.6l10.1-5l0.1,0.1
					l8.1,4l13.1,6.5c0,0,0,0,0.1,0C214.7,202.6,215.3,203.7,215.3,204.8z"/>
				<path class="st9" d="M215.3,204.8v10.5c-0.7-0.5-1.5-0.9-2.3-1.4c-1.5-0.9-3.1-1.6-4.7-2.3c-1.7-0.7-3.4-1.3-5.2-1.7
					c-1.3-0.3-2.7-0.7-4-0.8c-2-0.3-4.1-0.3-6.1-0.3h-1.3c-2.5,0-5,0.1-7.5,0.5c-0.8,0.1-1.5,0.3-2.3,0.5c-2.9,0.7-5.6,1.8-8.3,3.1
					c-0.4,0.2-0.8,0.4-1.2,0.6c-0.7,0.3-1.4,0.7-2,1.1c-0.1,0.1-1.1,0.6-1.1,0.7v-10.7c0-1,0.6-1.9,1.5-2.4l11.4-5.6l10.1-5l0.1,0.1
					l8.1,4l13.1,6.5c0,0,0,0,0.1,0C214.7,202.6,215.3,203.7,215.3,204.8z"/>
			</g>
			<path class="st20" d="M231.3,491.6c-0.1,9.8-8,17.7-17.8,17.7h-42.3c-0.6,0-1.1,0-1.6-0.1c-0.5-0.1-1.1-0.1-1.6-0.2
				c-3.6-0.7-6.9-2.6-9.6-5.1c-2.4-2.5-4.1-5.6-4.7-9.1c-0.2-1-0.3-2-0.3-3.1c-0.1-10.2-0.1-25,0-42.3h78
				C231.4,466.3,231.4,481.2,231.3,491.6z"/>
		</g>
		<path class="st21" d="M229.3,59.1c-0.1,0-0.1-0.1-0.1-0.1c-39-24-70.3-1.8-74.1,1.1c0,0,0,0-0.1,0.1c-0.2,0.2-0.3,0.3-0.3,0.3
			c1.7-2.9,3.6-5.8,5.6-8.5c5.8-8,13.2-15.7,22.4-19.7c1.7-0.7,3.4-1.3,5.1-1.7c1.5-0.3,3-0.5,4.6-0.6c1.2-0.1,2.4,0.1,3.5,0.3
			c0.3,0.1,0.7,0.1,1,0.2c6.5,1.5,12.3,5.4,17.2,9.8C220.1,45.7,225.1,52.2,229.3,59.1z"/>
	</g>
</g>
</svg>
